<svg width="2880" height="1180" viewBox="0 0 2880 1180" fill="none" xmlns="http://www.w3.org/2000/svg">
<g clip-path="url(#clip0_266_20)">
<mask id="path-1-inside-1_266_20" fill="white">
<path fill-rule="evenodd" clip-rule="evenodd" d="M2012.2 590.25L2286.59 1065.5H1463L1737.39 590.25L1463 115L2286.59 115L2012.2 590.25Z"/>
</mask>
<path fill-rule="evenodd" clip-rule="evenodd" d="M2012.2 590.25L2286.59 1065.5H1463L1737.39 590.25L1463 115L2286.59 115L2012.2 590.25Z" fill="#D9D9D9"/>
<path d="M2012.2 590.25L2009.61 588.75L2008.74 590.25L2009.61 591.75L2012.2 590.25ZM2286.59 1065.5V1068.5H2291.79L2289.19 1064L2286.59 1065.5ZM1463 1065.5L1460.4 1064L1457.8 1068.5H1463V1065.5ZM1737.39 590.25L1739.98 591.75L1740.85 590.25L1739.98 588.75L1737.39 590.25ZM1463 115L1463 112L1457.8 112L1460.4 116.5L1463 115ZM2286.59 115L2289.19 116.5L2291.79 112L2286.59 112L2286.59 115ZM2009.61 591.75L2283.99 1067L2289.19 1064L2014.8 588.75L2009.61 591.75ZM2286.59 1062.5H1463V1068.5H2286.59V1062.5ZM1465.6 1067L1739.98 591.75L1734.79 588.75L1460.4 1064L1465.6 1067ZM1739.98 588.75L1465.6 113.5L1460.4 116.5L1734.79 591.75L1739.98 588.75ZM1463 118L2286.59 118L2286.59 112L1463 112L1463 118ZM2283.99 113.5L2009.61 588.75L2014.8 591.75L2289.19 116.5L2283.99 113.5Z" fill="black" mask="url(#path-1-inside-1_266_20)"/>
<path d="M2490.87 207.026L2723.5 116.609L2956.13 207.026L3100.04 443.982V737.018L2956.13 973.974L2723.5 1064.39L2490.87 973.974L2346.96 737.018V443.982L2490.87 207.026Z" fill="white" stroke="black" stroke-width="3"/>
<path d="M1406.79 185.872L1422.07 202.945C1446.69 230.438 1482.46 245.256 1519.31 243.219L1542.19 241.954C1612.7 238.056 1670.94 296.305 1667.05 366.815L1665.78 389.695C1663.74 426.539 1678.56 462.313 1706.06 486.926L1723.13 502.21C1775.74 549.312 1775.74 631.688 1723.13 678.79L1706.06 694.074C1678.56 718.687 1663.74 754.461 1665.78 791.305L1667.05 814.185C1670.94 884.695 1612.7 942.944 1542.19 939.046L1519.31 937.781C1482.46 935.744 1446.69 950.562 1422.07 978.055L1406.79 995.128C1359.69 1047.74 1277.31 1047.74 1230.21 995.128L1214.93 978.055C1190.31 950.562 1154.54 935.744 1117.69 937.781L1094.81 939.046C1024.3 942.944 966.056 884.695 969.954 814.185L971.219 791.305C973.256 754.461 958.438 718.687 930.945 694.074L913.872 678.79C861.257 631.688 861.257 549.312 913.872 502.21L930.945 486.926C958.438 462.313 973.256 426.54 971.219 389.695L969.954 366.815C966.056 296.305 1024.3 238.056 1094.81 241.954L1117.69 243.219C1154.54 245.256 1190.31 230.438 1214.93 202.945L1230.21 185.872C1277.31 133.257 1359.69 133.257 1406.79 185.872Z" fill="#E5A9A9" stroke="black" stroke-width="3"/>
<path d="M697.5 560.5C697.5 822.497 514.185 1034.5 288.5 1034.5C62.8149 1034.5 -120.5 822.497 -120.5 560.5C-120.5 298.503 62.8149 86.5 288.5 86.5C514.185 86.5 697.5 298.503 697.5 560.5Z" fill="white" stroke="black" stroke-width="3"/>
</g>
<defs>
<clipPath id="clip0_266_20">
<rect width="2880" height="1180" fill="white"/>
</clipPath>
</defs>
</svg>
