<svg width="2880" height="1180" viewBox="0 0 2880 1180" fill="none" xmlns="http://www.w3.org/2000/svg">
<g clip-path="url(#clip0_266_11)">
<mask id="path-1-inside-1_266_11" fill="white">
<path fill-rule="evenodd" clip-rule="evenodd" d="M1313.2 590.25L1587.59 1065.5H764L1038.39 590.25L764 115L1587.59 115L1313.2 590.25Z"/>
</mask>
<path fill-rule="evenodd" clip-rule="evenodd" d="M1313.2 590.25L1587.59 1065.5H764L1038.39 590.25L764 115L1587.59 115L1313.2 590.25Z" fill="#D9D9D9"/>
<path d="M1313.2 590.25L1310.61 588.75L1309.74 590.25L1310.61 591.75L1313.2 590.25ZM1587.59 1065.5V1068.5H1592.79L1590.19 1064L1587.59 1065.5ZM764 1065.5L761.402 1064L758.804 1068.5H764V1065.5ZM1038.39 590.25L1040.98 591.75L1041.85 590.25L1040.98 588.75L1038.39 590.25ZM764 115L764 112L758.804 112L761.402 116.5L764 115ZM1587.59 115L1590.19 116.5L1592.79 112L1587.59 112L1587.59 115ZM1310.61 591.75L1584.99 1067L1590.19 1064L1315.8 588.75L1310.61 591.75ZM1587.59 1062.5H764V1068.5H1587.59V1062.5ZM766.598 1067L1040.98 591.75L1035.79 588.75L761.402 1064L766.598 1067ZM1040.98 588.75L766.598 113.5L761.402 116.5L1035.79 591.75L1040.98 588.75ZM764 118L1587.59 118L1587.59 112L764 112L764 118ZM1584.99 113.5L1310.61 588.75L1315.8 591.75L1590.19 116.5L1584.99 113.5Z" fill="black" mask="url(#path-1-inside-1_266_11)"/>
<path d="M1455.87 207.026L1688.5 116.609L1921.13 207.026L2065.04 443.982V737.018L1921.13 973.974L1688.5 1064.39L1455.87 973.974L1311.96 737.018V443.982L1455.87 207.026Z" fill="#E6A9A9" stroke="black" stroke-width="3"/>
<path d="M375.79 185.872L391.074 202.945C415.687 230.438 451.46 245.256 488.305 243.219L511.185 241.954C581.695 238.056 639.944 296.305 636.046 366.815L634.781 389.695C632.744 426.539 647.562 462.313 675.055 486.926L692.128 502.21C744.743 549.312 744.743 631.688 692.128 678.79L675.055 694.074C647.562 718.687 632.744 754.461 634.781 791.305L636.046 814.185C639.944 884.695 581.695 942.944 511.185 939.046L488.305 937.781C451.461 935.744 415.687 950.562 391.074 978.055L375.79 995.128C328.688 1047.74 246.312 1047.74 199.21 995.128L183.926 978.055C159.313 950.562 123.539 935.744 86.6946 937.781L63.8149 939.046C-6.69514 942.944 -64.9436 884.695 -61.0456 814.185L-59.7807 791.305C-57.7438 754.461 -72.5618 718.687 -100.055 694.074L-117.128 678.79C-169.743 631.688 -169.743 549.312 -117.128 502.21L-100.055 486.926C-72.5618 462.313 -57.7438 426.54 -59.7807 389.695L-61.0456 366.815C-64.9436 296.305 -6.69524 238.056 63.8148 241.954L86.6946 243.219C123.539 245.256 159.313 230.438 183.926 202.945L199.21 185.872C246.312 133.257 328.688 133.257 375.79 185.872Z" fill="#D9D9D9" stroke="black" stroke-width="3"/>
<path d="M3020.5 589.5C3020.5 851.497 2837.19 1063.5 2611.5 1063.5C2385.81 1063.5 2202.5 851.497 2202.5 589.5C2202.5 327.503 2385.81 115.5 2611.5 115.5C2837.19 115.5 3020.5 327.503 3020.5 589.5Z" fill="white" stroke="black" stroke-width="3"/>
</g>
<defs>
<clipPath id="clip0_266_11">
<rect width="2880" height="1180" fill="white"/>
</clipPath>
</defs>
</svg>
