<svg width="2880" height="1180" viewBox="0 0 2880 1180" fill="none" xmlns="http://www.w3.org/2000/svg">
<g clip-path="url(#clip0_265_2)">
<mask id="path-1-inside-1_265_2" fill="white">
<path fill-rule="evenodd" clip-rule="evenodd" d="M448.204 590.25L722.59 1065.5H-101L173.386 590.25L-101 115L722.59 115L448.204 590.25Z"/>
</mask>
<path fill-rule="evenodd" clip-rule="evenodd" d="M448.204 590.25L722.59 1065.5H-101L173.386 590.25L-101 115L722.59 115L448.204 590.25Z" fill="#D9D9D9"/>
<path d="M448.204 590.25L445.606 588.75L444.74 590.25L445.606 591.75L448.204 590.25ZM722.59 1065.5V1068.5H727.786L725.188 1064L722.59 1065.5ZM-101 1065.5L-103.598 1064L-106.196 1068.5H-101V1065.5ZM173.386 590.25L175.984 591.75L176.85 590.25L175.984 588.75L173.386 590.25ZM-101 115L-101 112L-106.196 112L-103.598 116.5L-101 115ZM722.59 115L725.188 116.5L727.786 112L722.59 112L722.59 115ZM445.606 591.75L719.992 1067L725.188 1064L450.803 588.75L445.606 591.75ZM722.59 1062.5H-101V1068.5H722.59V1062.5ZM-98.4019 1067L175.984 591.75L170.788 588.75L-103.598 1064L-98.4019 1067ZM175.984 588.75L-98.4019 113.5L-103.598 116.5L170.788 591.75L175.984 588.75ZM-101 118L722.59 118L722.59 112L-101 112L-101 118ZM719.992 113.5L445.606 588.75L450.803 591.75L725.188 116.5L719.992 113.5Z" fill="black" mask="url(#path-1-inside-1_265_2)"/>
<path d="M942.873 207.026L1175.5 116.609L1408.13 207.026L1552.04 443.982V737.018L1408.13 973.974L1175.5 1064.39L942.873 973.974L798.955 737.018V443.982L942.873 207.026Z" fill="#E6A9A9" stroke="black" stroke-width="3"/>
<path d="M2299.5 590.5C2299.5 852.497 2116.19 1064.5 1890.5 1064.5C1664.81 1064.5 1481.5 852.497 1481.5 590.5C1481.5 328.503 1664.81 116.5 1890.5 116.5C2116.19 116.5 2299.5 328.503 2299.5 590.5Z" fill="white" stroke="black" stroke-width="3"/>
<path d="M2894.79 185.872L2910.07 202.945C2934.69 230.438 2970.46 245.256 3007.31 243.219L3030.19 241.954C3100.7 238.056 3158.94 296.305 3155.05 366.815L3153.78 389.695C3151.74 426.539 3166.56 462.313 3194.06 486.926L3211.13 502.21C3263.74 549.312 3263.74 631.688 3211.13 678.79L3194.06 694.074C3166.56 718.687 3151.74 754.461 3153.78 791.305L3155.05 814.185C3158.94 884.695 3100.7 942.944 3030.19 939.046L3007.31 937.781C2970.46 935.744 2934.69 950.562 2910.07 978.055L2894.79 995.128C2847.69 1047.74 2765.31 1047.74 2718.21 995.128L2702.93 978.055C2678.31 950.562 2642.54 935.744 2605.69 937.781L2582.81 939.046C2512.3 942.944 2454.06 884.695 2457.95 814.185L2459.22 791.305C2461.26 754.461 2446.44 718.687 2418.94 694.074L2401.87 678.79C2349.26 631.688 2349.26 549.312 2401.87 502.21L2418.94 486.926C2446.44 462.313 2461.26 426.54 2459.22 389.695L2457.95 366.815C2454.06 296.305 2512.3 238.056 2582.81 241.954L2605.69 243.219C2642.54 245.256 2678.31 230.438 2702.93 202.945L2718.21 185.872C2765.31 133.257 2847.69 133.257 2894.79 185.872Z" fill="#D9D9D9" stroke="black" stroke-width="3"/>
</g>
<defs>
<clipPath id="clip0_265_2">
<rect width="2880" height="1180" fill="white"/>
</clipPath>
</defs>
</svg>
