<svg width="2880" height="1180" viewBox="0 0 2880 1180" fill="none" xmlns="http://www.w3.org/2000/svg">
<g clip-path="url(#clip0_266_2)">
<mask id="path-1-inside-1_266_2" fill="white">
<path fill-rule="evenodd" clip-rule="evenodd" d="M1313.2 590.25L1587.59 1065.5H764L1038.39 590.25L764 115L1587.59 115L1313.2 590.25Z"/>
</mask>
<path fill-rule="evenodd" clip-rule="evenodd" d="M1313.2 590.25L1587.59 1065.5H764L1038.39 590.25L764 115L1587.59 115L1313.2 590.25Z" fill="#D9D9D9"/>
<path d="M1313.2 590.25L1310.61 588.75L1309.74 590.25L1310.61 591.75L1313.2 590.25ZM1587.59 1065.5V1068.5H1592.79L1590.19 1064L1587.59 1065.5ZM764 1065.5L761.402 1064L758.804 1068.5H764V1065.5ZM1038.39 590.25L1040.98 591.75L1041.85 590.25L1040.98 588.75L1038.39 590.25ZM764 115L764 112L758.804 112L761.402 116.5L764 115ZM1587.59 115L1590.19 116.5L1592.79 112L1587.59 112L1587.59 115ZM1310.61 591.75L1584.99 1067L1590.19 1064L1315.8 588.75L1310.61 591.75ZM1587.59 1062.5H764V1068.5H1587.59V1062.5ZM766.598 1067L1040.98 591.75L1035.79 588.75L761.402 1064L766.598 1067ZM1040.98 588.75L766.598 113.5L761.402 116.5L1035.79 591.75L1040.98 588.75ZM764 118L1587.59 118L1587.59 112L764 112L764 118ZM1584.99 113.5L1310.61 588.75L1315.8 591.75L1590.19 116.5L1584.99 113.5Z" fill="black" mask="url(#path-1-inside-1_266_2)"/>
<path d="M112.873 207.026L345.5 116.609L578.127 207.026L722.045 443.982V737.018L578.127 973.974L345.5 1064.39L112.873 973.974L-31.045 737.018V443.982L112.873 207.026Z" fill="#E6A9A9" stroke="black" stroke-width="3"/>
<path d="M2232.79 184.872L2248.07 201.945C2272.69 229.438 2308.46 244.256 2345.31 242.219L2368.19 240.954C2438.7 237.056 2496.94 295.305 2493.05 365.815L2491.78 388.695C2489.74 425.539 2504.56 461.313 2532.06 485.926L2549.13 501.21C2601.74 548.312 2601.74 630.688 2549.13 677.79L2532.06 693.074C2504.56 717.687 2489.74 753.461 2491.78 790.305L2493.05 813.185C2496.94 883.695 2438.7 941.944 2368.19 938.046L2345.31 936.781C2308.46 934.744 2272.69 949.562 2248.07 977.055L2232.79 994.128C2185.69 1046.74 2103.31 1046.74 2056.21 994.128L2040.93 977.055C2016.31 949.562 1980.54 934.744 1943.69 936.781L1920.81 938.046C1850.3 941.944 1792.06 883.695 1795.95 813.185L1797.22 790.305C1799.26 753.461 1784.44 717.687 1756.94 693.074L1739.87 677.79C1687.26 630.688 1687.26 548.312 1739.87 501.21L1756.94 485.926C1784.44 461.313 1799.26 425.54 1797.22 388.695L1795.95 365.815C1792.06 295.305 1850.3 237.056 1920.81 240.954L1943.69 242.219C1980.54 244.256 2016.31 229.438 2040.93 201.945L2056.21 184.872C2103.31 132.257 2185.69 132.257 2232.79 184.872Z" fill="#D9D9D9" stroke="black" stroke-width="3"/>
<path d="M3232.5 590.5C3232.5 852.497 3049.19 1064.5 2823.5 1064.5C2597.81 1064.5 2414.5 852.497 2414.5 590.5C2414.5 328.503 2597.81 116.5 2823.5 116.5C3049.19 116.5 3232.5 328.503 3232.5 590.5Z" fill="white" stroke="black" stroke-width="3"/>
</g>
<defs>
<clipPath id="clip0_266_2">
<rect width="2880" height="1180" fill="white"/>
</clipPath>
</defs>
</svg>
